<svg xmlns="http://www.w3.org/2000/svg" width="300" height="40" viewBox="0 0 300 40" fill="none"><path d="M2.98284 14.4714C2.98284 15.1773 3.27527 15.7165 3.86014 16.089C4.46451 16.4616 5.55626 16.7067 7.13541 16.8243C8.83153 16.9616 10.1182 17.3734 10.9956 18.0596C11.8924 18.7263 12.3408 19.7067 12.3408 21.0008V21.1773C12.3408 21.8832 12.1945 22.5204 11.9021 23.089C11.6292 23.6381 11.2392 24.1087 10.7324 24.5008C10.245 24.893 9.6406 25.1871 8.91926 25.3832C8.21742 25.5988 7.44734 25.7067 6.60903 25.7067C5.47828 25.7067 4.5035 25.5596 3.68468 25.2655C2.88536 24.9518 2.21276 24.5498 1.66688 24.0596C1.1405 23.5498 0.740835 22.9812 0.467896 22.3537C0.194956 21.7067 0.0389912 21.0596 0 20.4126L2.16402 19.8832C2.2615 21.0008 2.6904 21.9028 3.45073 22.589C4.21106 23.2557 5.22484 23.589 6.49205 23.589C7.56431 23.589 8.42212 23.3832 9.06548 22.9714C9.72833 22.54 10.0598 21.942 10.0598 21.1773C10.0598 20.3537 9.73808 19.7655 9.09472 19.4126C8.45137 19.0596 7.40835 18.8341 5.96567 18.7361C4.28904 18.6185 3.00233 18.2263 2.10553 17.5596C1.20873 16.893 0.76033 15.9224 0.76033 14.6479V14.4714C0.76033 13.7851 0.906548 13.1871 1.19898 12.6773C1.49142 12.1479 1.88133 11.7067 2.36872 11.3537C2.87561 11.0008 3.44098 10.7361 4.06484 10.5596C4.68871 10.3832 5.34181 10.2949 6.02416 10.2949C6.97945 10.2949 7.81776 10.4322 8.5391 10.7067C9.26044 10.9616 9.8648 11.3047 10.3522 11.7361C10.8396 12.1479 11.21 12.6283 11.4634 13.1773C11.7364 13.7263 11.9118 14.2753 11.9898 14.8243L9.82581 15.3537C9.72833 14.4126 9.34817 13.6773 8.68532 13.1479C8.04196 12.6185 7.1939 12.3537 6.14113 12.3537C5.73172 12.3537 5.33206 12.4028 4.94215 12.5008C4.57173 12.5792 4.24031 12.7067 3.94787 12.8832C3.65544 13.0596 3.42149 13.2851 3.24603 13.5596C3.07057 13.8145 2.98284 14.1185 2.98284 14.4714Z" fill="#024D8C"></path><path d="M19.5436 18.7067C19.602 20.1577 20.0504 21.3243 20.8888 22.2067C21.7271 23.089 22.8968 23.5302 24.398 23.5302C25.0803 23.5302 25.6749 23.4518 26.1818 23.2949C26.6887 23.1381 27.1176 22.9224 27.4685 22.6479C27.839 22.3734 28.1314 22.0596 28.3458 21.7067C28.5798 21.3341 28.765 20.942 28.9015 20.5302L31.0655 21.1185C30.6561 22.4714 29.8958 23.5792 28.7845 24.442C27.6927 25.2851 26.2111 25.7067 24.3395 25.7067C23.3062 25.7067 22.3509 25.5302 21.4736 25.1773C20.6158 24.8047 19.875 24.2851 19.2511 23.6185C18.6273 22.9518 18.1399 22.1577 17.7889 21.2361C17.438 20.3145 17.2626 19.2949 17.2626 18.1773V17.4714C17.2626 16.4518 17.438 15.5008 17.7889 14.6185C18.1594 13.7361 18.6663 12.9812 19.3096 12.3537C19.953 11.7067 20.7036 11.2067 21.5614 10.8537C22.4387 10.4812 23.3842 10.2949 24.398 10.2949C25.5872 10.2949 26.6107 10.5204 27.4685 10.9714C28.3458 11.4028 29.0574 11.942 29.6033 12.589C30.1687 13.2361 30.5781 13.942 30.8315 14.7067C31.1045 15.4714 31.241 16.1773 31.241 16.8243V18.7067H19.5436ZM24.398 12.4714C23.7546 12.4714 23.1503 12.5792 22.5849 12.7949C22.039 12.991 21.5516 13.2753 21.1227 13.6479C20.7133 14.0204 20.3721 14.4616 20.0992 14.9714C19.8457 15.4616 19.68 16.0008 19.602 16.589H28.96C28.921 15.9616 28.765 15.393 28.4921 14.8832C28.2386 14.3734 27.8974 13.942 27.4685 13.589C27.0591 13.2361 26.5815 12.9616 26.0356 12.7655C25.5092 12.5694 24.9634 12.4714 24.398 12.4714Z" fill="#024D8C"></path><path d="M34.9638 10.7067H40.2276V12.6479H40.5785C40.949 11.8439 41.4753 11.2557 42.1577 10.8832C42.84 10.491 43.6199 10.2949 44.4972 10.2949C45.9593 10.2949 47.1388 10.7753 48.0356 11.7361C48.9324 12.6969 49.4101 14.0988 49.4686 15.942L47.0706 16.2949C47.0706 14.942 46.7489 13.9714 46.1056 13.3832C45.4622 12.7753 44.6726 12.4714 43.7368 12.4714C43.1325 12.4714 42.6061 12.589 42.1577 12.8243C41.7288 13.0596 41.3681 13.3832 41.0757 13.7949C40.7832 14.2067 40.5688 14.6871 40.4323 15.2361C40.2958 15.7851 40.2276 16.3734 40.2276 17.0008V23.1773H43.9123V25.2949H34.6129V23.1773H37.9466V12.8243H34.9638V10.7067Z" fill="#024D8C"></path><path d="M62.3154 25.2949H57.8119L52.7527 10.7067H55.4431L59.8881 24.2361H60.2391L64.6841 10.7067H67.3745L62.3154 25.2949Z" fill="#024D8C"></path><path d="M73.2613 18.7067C73.3198 20.1577 73.7682 21.3243 74.6065 22.2067C75.4448 23.089 76.6146 23.5302 78.1158 23.5302C78.7981 23.5302 79.3927 23.4518 79.8996 23.2949C80.4065 23.1381 80.8354 22.9224 81.1863 22.6479C81.5567 22.3734 81.8492 22.0596 82.0636 21.7067C82.2976 21.3341 82.4828 20.942 82.6192 20.5302L84.7833 21.1185C84.3739 22.4714 83.6135 23.5792 82.5023 24.442C81.4105 25.2851 79.9288 25.7067 78.0573 25.7067C77.024 25.7067 76.0687 25.5302 75.1914 25.1773C74.3336 24.8047 73.5928 24.2851 72.9689 23.6185C72.345 22.9518 71.8576 22.1577 71.5067 21.2361C71.1558 20.3145 70.9803 19.2949 70.9803 18.1773V17.4714C70.9803 16.4518 71.1558 15.5008 71.5067 14.6185C71.8771 13.7361 72.384 12.9812 73.0274 12.3537C73.6707 11.7067 74.4213 11.2067 75.2791 10.8537C76.1564 10.4812 77.102 10.2949 78.1158 10.2949C79.305 10.2949 80.3285 10.5204 81.1863 10.9714C82.0636 11.4028 82.7752 11.942 83.3211 12.589C83.8865 13.2361 84.2959 13.942 84.5493 14.7067C84.8223 15.4714 84.9587 16.1773 84.9587 16.8243V18.7067H73.2613ZM78.1158 12.4714C77.4724 12.4714 76.868 12.5792 76.3027 12.7949C75.7568 12.991 75.2694 13.2753 74.8405 13.6479C74.4311 14.0204 74.0899 14.4616 73.8169 14.9714C73.5635 15.4616 73.3978 16.0008 73.3198 16.589H82.6777C82.6387 15.9616 82.4828 15.393 82.2098 14.8832C81.9564 14.3734 81.6152 13.942 81.1863 13.589C80.7769 13.2361 80.2993 12.9616 79.7534 12.7655C79.227 12.5694 78.6811 12.4714 78.1158 12.4714Z" fill="#024D8C"></path><path d="M88.6816 10.7067H93.9454V12.6479H94.2963C94.6667 11.8439 95.1931 11.2557 95.8755 10.8832C96.5578 10.491 97.3376 10.2949 98.2149 10.2949C99.6771 10.2949 100.857 10.7753 101.753 11.7361C102.65 12.6969 103.128 14.0988 103.186 15.942L100.788 16.2949C100.788 14.942 100.467 13.9714 99.8233 13.3832C99.18 12.7753 98.3904 12.4714 97.4546 12.4714C96.8502 12.4714 96.3239 12.589 95.8755 12.8243C95.4465 13.0596 95.0859 13.3832 94.7934 13.7949C94.501 14.2067 94.2866 14.6871 94.1501 15.2361C94.0136 15.7851 93.9454 16.3734 93.9454 17.0008V23.1773H97.6301V25.2949H88.3306V23.1773H91.6644V12.8243H88.6816V10.7067Z" fill="#024D8C"></path><path d="M120.975 20.1185C120.819 20.9224 120.546 21.6675 120.156 22.3537C119.786 23.04 119.308 23.6381 118.724 24.1479C118.139 24.6381 117.456 25.0204 116.676 25.2949C115.897 25.5694 115.029 25.7067 114.074 25.7067C113.06 25.7067 112.095 25.54 111.179 25.2067C110.282 24.8734 109.492 24.393 108.81 23.7655C108.128 23.1185 107.582 22.3341 107.172 21.4126C106.782 20.491 106.587 19.4322 106.587 18.2361V17.8832C106.587 16.7067 106.782 15.6479 107.172 14.7067C107.582 13.7655 108.128 12.9714 108.81 12.3243C109.492 11.6773 110.282 11.1773 111.179 10.8243C112.095 10.4714 113.06 10.2949 114.074 10.2949C114.99 10.2949 115.838 10.4322 116.618 10.7067C117.398 10.9812 118.08 11.3734 118.665 11.8832C119.269 12.3734 119.757 12.9616 120.127 13.6479C120.517 14.3341 120.78 15.0792 120.917 15.8832L118.636 16.4126C118.577 15.9028 118.431 15.4126 118.197 14.942C117.983 14.4518 117.681 14.0302 117.291 13.6773C116.92 13.3047 116.462 13.0106 115.916 12.7949C115.37 12.5792 114.737 12.4714 114.015 12.4714C113.313 12.4714 112.651 12.6086 112.027 12.8832C111.422 13.1381 110.886 13.5106 110.418 14.0008C109.95 14.4714 109.58 15.04 109.307 15.7067C109.054 16.3734 108.927 17.0988 108.927 17.8832V18.2361C108.927 19.0596 109.054 19.8047 109.307 20.4714C109.58 21.1185 109.95 21.6675 110.418 22.1185C110.886 22.5694 111.432 22.9224 112.056 23.1773C112.68 23.4126 113.352 23.5302 114.074 23.5302C114.795 23.5302 115.419 23.4224 115.945 23.2067C116.491 22.9714 116.949 22.6773 117.32 22.3243C117.71 21.9518 118.012 21.5302 118.226 21.0596C118.46 20.589 118.616 20.0988 118.694 19.589L120.975 20.1185Z" fill="#024D8C"></path><path d="M138.998 18.1773C138.998 19.393 138.793 20.4714 138.384 21.4126C137.994 22.3341 137.468 23.1185 136.805 23.7655C136.142 24.393 135.362 24.8734 134.465 25.2067C133.588 25.54 132.672 25.7067 131.717 25.7067C130.742 25.7067 129.816 25.54 128.938 25.2067C128.061 24.8734 127.291 24.393 126.628 23.7655C125.965 23.1185 125.429 22.3341 125.02 21.4126C124.63 20.4714 124.435 19.393 124.435 18.1773V17.8243C124.435 16.6283 124.63 15.5694 125.02 14.6479C125.429 13.7067 125.965 12.9126 126.628 12.2655C127.311 11.6185 128.09 11.1283 128.968 10.7949C129.845 10.4616 130.761 10.2949 131.717 10.2949C132.672 10.2949 133.588 10.4616 134.465 10.7949C135.343 11.1283 136.113 11.6185 136.776 12.2655C137.458 12.9126 137.994 13.7067 138.384 14.6479C138.793 15.5694 138.998 16.6283 138.998 17.8243V18.1773ZM131.717 23.5302C132.418 23.5302 133.062 23.4126 133.647 23.1773C134.251 22.9224 134.777 22.5596 135.226 22.089C135.674 21.6185 136.025 21.0596 136.279 20.4126C136.532 19.7459 136.659 19.0008 136.659 18.1773V17.8243C136.659 17.04 136.532 16.3243 136.279 15.6773C136.025 15.0106 135.674 14.442 135.226 13.9714C134.777 13.5008 134.251 13.1381 133.647 12.8832C133.042 12.6086 132.399 12.4714 131.717 12.4714C131.034 12.4714 130.391 12.6086 129.786 12.8832C129.182 13.1381 128.656 13.5008 128.207 13.9714C127.759 14.442 127.408 15.0106 127.155 15.6773C126.901 16.3243 126.774 17.04 126.774 17.8243V18.1773C126.774 19.0008 126.901 19.7459 127.155 20.4126C127.408 21.0596 127.759 21.6185 128.207 22.089C128.656 22.5596 129.172 22.9224 129.757 23.1773C130.362 23.4126 131.015 23.5302 131.717 23.5302Z" fill="#024D8C"></path><path d="M142.399 10.7067H147.663V12.6479H148.014C148.384 11.8439 148.911 11.2557 149.593 10.8832C150.276 10.491 151.055 10.2949 151.933 10.2949C153.395 10.2949 154.574 10.7753 155.471 11.7361C156.368 12.6969 156.846 14.0988 156.904 15.942L154.506 16.2949C154.506 14.942 154.184 13.9714 153.541 13.3832C152.898 12.7753 152.108 12.4714 151.172 12.4714C150.568 12.4714 150.042 12.589 149.593 12.8243C149.164 13.0596 148.804 13.3832 148.511 13.7949C148.219 14.2067 148.004 14.6871 147.868 15.2361C147.731 15.7851 147.663 16.3734 147.663 17.0008V23.1773H151.348V25.2949H142.048V23.1773H145.382V12.8243H142.399V10.7067Z" fill="#024D8C"></path><path d="M162.791 18.7067C162.849 20.1577 163.298 21.3243 164.136 22.2067C164.974 23.089 166.144 23.5302 167.645 23.5302C168.328 23.5302 168.922 23.4518 169.429 23.2949C169.936 23.1381 170.365 22.9224 170.716 22.6479C171.086 22.3734 171.379 22.0596 171.593 21.7067C171.827 21.3341 172.012 20.942 172.149 20.5302L174.313 21.1185C173.903 22.4714 173.143 23.5792 172.032 24.442C170.94 25.2851 169.458 25.7067 167.587 25.7067C166.554 25.7067 165.598 25.5302 164.721 25.1773C163.863 24.8047 163.122 24.2851 162.499 23.6185C161.875 22.9518 161.387 22.1577 161.036 21.2361C160.685 20.3145 160.51 19.2949 160.51 18.1773V17.4714C160.51 16.4518 160.685 15.5008 161.036 14.6185C161.407 13.7361 161.914 12.9812 162.557 12.3537C163.2 11.7067 163.951 11.2067 164.809 10.8537C165.686 10.4812 166.632 10.2949 167.645 10.2949C168.835 10.2949 169.858 10.5204 170.716 10.9714C171.593 11.4028 172.305 11.942 172.851 12.589C173.416 13.2361 173.825 13.942 174.079 14.7067C174.352 15.4714 174.488 16.1773 174.488 16.8243V18.7067H162.791ZM167.645 12.4714C167.002 12.4714 166.398 12.5792 165.832 12.7949C165.286 12.991 164.799 13.2753 164.37 13.6479C163.961 14.0204 163.62 14.4616 163.347 14.9714C163.093 15.4616 162.927 16.0008 162.849 16.589H172.207C172.168 15.9616 172.012 15.393 171.739 14.8832C171.486 14.3734 171.145 13.942 170.716 13.589C170.307 13.2361 169.829 12.9616 169.283 12.7655C168.757 12.5694 168.211 12.4714 167.645 12.4714Z" fill="#024D8C"></path><path d="M174.642 0H184L172.302 40H162.944L174.642 0Z" fill="#1CFF86"></path><path fill-rule="evenodd" clip-rule="evenodd" d="M167.129 25.6949C167.28 25.7028 167.433 25.7068 167.587 25.7068C169.459 25.7068 170.94 25.2852 172.032 24.4421C173.143 23.5793 173.904 22.4715 174.313 21.1185L172.149 20.5303C172.013 20.9421 171.827 21.3342 171.593 21.7068C171.379 22.0597 171.087 22.3734 170.716 22.6479C170.365 22.9224 169.936 23.1381 169.429 23.295C168.952 23.4429 168.396 23.521 167.762 23.5295L167.129 25.6949ZM169.172 18.7068H174.489V16.8244C174.489 16.1773 174.352 15.4715 174.079 14.7068C173.826 13.9421 173.416 13.2362 172.851 12.5891C172.44 12.1017 171.935 11.6756 171.335 11.3105L170.678 13.557C170.691 13.5676 170.704 13.5783 170.716 13.5891C171.145 13.9421 171.486 14.3734 171.74 14.8832C172.013 15.393 172.169 15.9617 172.208 16.5891H169.792L169.172 18.7068Z" fill="#002357"></path><path d="M200.9 13.028H199.508C199.46 12.02 198.932 11.444 197.864 11.444C196.64 11.444 196.064 12.164 196.064 13.736C196.064 15.284 196.64 16.004 197.864 16.004C198.932 16.004 199.46 15.464 199.508 14.396H200.9C200.864 16.16 199.808 17.132 197.876 17.132C195.752 17.132 194.612 15.956 194.612 13.736C194.612 11.516 195.752 10.316 197.876 10.316C199.796 10.316 200.852 11.348 200.9 13.028ZM203.889 17H202.473V8H203.889V17ZM208.798 17.132C206.662 17.132 205.522 15.956 205.522 13.736C205.522 11.504 206.662 10.316 208.798 10.316C210.946 10.316 212.086 11.504 212.086 13.724C212.086 15.944 210.946 17.132 208.798 17.132ZM208.798 16.004C210.046 16.004 210.634 15.272 210.634 13.724C210.634 12.164 210.046 11.444 208.798 11.444C207.562 11.444 206.974 12.176 206.974 13.736C206.974 15.272 207.562 16.004 208.798 16.004ZM217.959 14.504V10.46H219.387V17H217.959V16.088C217.527 16.748 216.795 17.132 215.823 17.132C214.443 17.132 213.627 16.496 213.627 15.056V10.46H215.043V14.804C215.043 15.608 215.487 16.004 216.387 16.004C217.299 16.004 217.959 15.452 217.959 14.504ZM223.858 17.132C222.01 17.132 221.026 15.956 221.026 13.736C221.026 11.504 222.01 10.316 223.858 10.316C224.818 10.316 225.598 10.796 226.066 11.6V8H227.494V17H226.066V15.86C225.598 16.664 224.818 17.132 223.858 17.132ZM224.242 15.992C225.442 15.992 226.066 15.248 226.066 13.736C226.066 12.212 225.442 11.456 224.242 11.456C223.042 11.456 222.49 12.164 222.49 13.736C222.49 15.272 223.042 15.992 224.242 15.992ZM235.781 17.132C234.809 17.132 234.041 16.664 233.573 15.872V19.4H232.157V10.46H233.573V11.588C234.041 10.784 234.809 10.316 235.781 10.316C237.617 10.316 238.613 11.504 238.613 13.736C238.613 15.956 237.617 17.132 235.781 17.132ZM235.397 15.992C236.585 15.992 237.149 15.272 237.149 13.736C237.149 12.164 236.585 11.456 235.397 11.456C234.185 11.456 233.573 12.212 233.573 13.736C233.573 15.248 234.185 15.992 235.397 15.992ZM241.67 17H240.254V8H241.67V17ZM243.447 12.5C243.447 11.012 244.419 10.316 246.327 10.316C248.199 10.316 249.135 10.988 249.135 12.632V17H247.755V15.86C247.299 16.664 246.531 17.132 245.487 17.132C244.071 17.132 243.255 16.46 243.255 15.152C243.255 13.736 244.095 13.064 245.847 13.064H247.755V12.632C247.755 11.684 247.299 11.36 246.267 11.36C245.199 11.36 244.779 11.72 244.779 12.5H243.447ZM245.811 16.052C246.927 16.052 247.755 15.248 247.755 14.276V14.06H245.847C245.031 14.06 244.659 14.36 244.659 15.068C244.659 15.776 245.043 16.052 245.811 16.052ZM251.731 15.704V11.6H250.111V10.46H251.803L252.031 8.756H253.159V10.46H255.187V11.6H253.159V15.476C253.159 15.716 253.291 15.848 253.531 15.848H255.187V17H253.027C252.247 17 251.731 16.484 251.731 15.704ZM255.667 10.46H257.263V9.62C257.263 8.648 257.911 8 258.883 8H261.091V9.104H259.087C258.823 9.104 258.679 9.248 258.679 9.524V10.46H260.707V11.6H258.679V17H257.263V11.6H255.667V10.46ZM264.861 17.132C262.725 17.132 261.585 15.956 261.585 13.736C261.585 11.504 262.725 10.316 264.861 10.316C267.009 10.316 268.149 11.504 268.149 13.724C268.149 15.944 267.009 17.132 264.861 17.132ZM264.861 16.004C266.109 16.004 266.697 15.272 266.697 13.724C266.697 12.164 266.109 11.444 264.861 11.444C263.625 11.444 263.037 12.176 263.037 13.736C263.037 15.272 263.625 16.004 264.861 16.004ZM269.786 17V10.46H271.202V11.288C271.478 10.76 271.958 10.46 272.582 10.46H273.842V11.768H271.91C271.454 11.768 271.202 12.044 271.202 12.524V17H269.786ZM275.059 17V10.46H276.475V11.444C276.907 10.736 277.627 10.316 278.551 10.316C279.643 10.316 280.267 10.748 280.483 11.528C280.903 10.772 281.647 10.316 282.691 10.316C284.131 10.316 284.731 11.084 284.731 12.464V17H283.315V12.752C283.315 11.96 283.003 11.456 282.139 11.456C281.143 11.456 280.591 12.032 280.591 13.076V17H279.175V12.752C279.175 11.96 278.851 11.456 277.987 11.456C277.015 11.456 276.475 12.032 276.475 13.076V17H275.059ZM194.144 25.46H195.74V24.62C195.74 23.648 196.388 23 197.36 23H199.568V24.104H197.564C197.3 24.104 197.156 24.248 197.156 24.524V25.46H199.184V26.6H197.156V32H195.74V26.6H194.144V25.46ZM203.337 32.132C201.201 32.132 200.061 30.956 200.061 28.736C200.061 26.504 201.201 25.316 203.337 25.316C205.485 25.316 206.625 26.504 206.625 28.724C206.625 30.944 205.485 32.132 203.337 32.132ZM203.337 31.004C204.585 31.004 205.173 30.272 205.173 28.724C205.173 27.164 204.585 26.444 203.337 26.444C202.101 26.444 201.513 27.176 201.513 28.736C201.513 30.272 202.101 31.004 203.337 31.004ZM208.262 32V25.46H209.678V26.288C209.954 25.76 210.434 25.46 211.058 25.46H212.318V26.768H210.386C209.93 26.768 209.678 27.044 209.678 27.524V32H208.262ZM217.588 32H216.172V23H217.588V26.588C218.056 25.784 218.824 25.316 219.796 25.316C221.632 25.316 222.628 26.504 222.628 28.736C222.628 30.956 221.632 32.132 219.796 32.132C218.824 32.132 218.056 31.664 217.588 30.872V32ZM219.412 30.992C220.6 30.992 221.164 30.272 221.164 28.736C221.164 27.164 220.6 26.456 219.412 26.456C218.2 26.456 217.588 27.212 217.588 28.736C217.588 30.248 218.2 30.992 219.412 30.992ZM228.506 29.504V25.46H229.934V32H228.506V31.088C228.074 31.748 227.342 32.132 226.37 32.132C224.99 32.132 224.174 31.496 224.174 30.056V25.46H225.59V29.804C225.59 30.608 226.034 31.004 226.934 31.004C227.846 31.004 228.506 30.452 228.506 29.504ZM234.369 26.36C233.373 26.36 232.977 26.636 232.977 27.164C232.977 27.692 233.229 27.884 234.141 28.016L235.029 28.136C236.697 28.364 237.273 28.892 237.273 30.116C237.273 31.376 236.385 32.132 234.429 32.132C232.509 32.132 231.465 31.484 231.465 29.852H232.809C232.809 30.728 233.325 31.088 234.429 31.088C235.437 31.088 235.893 30.824 235.893 30.188C235.893 29.624 235.629 29.42 234.681 29.288L233.781 29.168C232.293 28.964 231.609 28.388 231.609 27.284C231.609 26.06 232.569 25.316 234.369 25.316C236.205 25.316 237.093 25.976 237.105 27.404H235.797C235.797 26.66 235.353 26.36 234.369 26.36ZM240.218 23V24.404H238.766V23H240.218ZM240.206 25.46V32H238.79V25.46H240.206ZM242.247 32V25.46H243.663V26.504C244.095 25.748 244.839 25.316 245.883 25.316C247.407 25.316 248.127 26.12 248.127 27.596V32H246.699V27.848C246.699 26.9 246.267 26.456 245.307 26.456C244.299 26.456 243.663 27.068 243.663 28.148V32H242.247ZM252.919 32.132C250.735 32.132 249.667 30.944 249.667 28.712C249.667 26.504 250.759 25.316 252.919 25.316C255.067 25.316 255.979 26.528 255.979 28.496C255.979 28.688 255.955 28.844 255.943 29.012H251.047C251.107 30.416 251.659 31.016 252.967 31.016C254.011 31.016 254.575 30.644 254.611 29.84H255.943C255.835 31.328 254.815 32.132 252.919 32.132ZM252.919 26.384C251.767 26.384 251.215 26.888 251.071 28.052H254.647C254.587 27.008 254.167 26.384 252.919 26.384ZM260.022 26.36C259.026 26.36 258.63 26.636 258.63 27.164C258.63 27.692 258.882 27.884 259.794 28.016L260.682 28.136C262.35 28.364 262.926 28.892 262.926 30.116C262.926 31.376 262.038 32.132 260.082 32.132C258.162 32.132 257.118 31.484 257.118 29.852H258.462C258.462 30.728 258.978 31.088 260.082 31.088C261.09 31.088 261.546 30.824 261.546 30.188C261.546 29.624 261.282 29.42 260.334 29.288L259.434 29.168C257.946 28.964 257.262 28.388 257.262 27.284C257.262 26.06 258.222 25.316 260.022 25.316C261.858 25.316 262.746 25.976 262.758 27.404H261.45C261.45 26.66 261.006 26.36 260.022 26.36ZM266.76 26.36C265.764 26.36 265.368 26.636 265.368 27.164C265.368 27.692 265.62 27.884 266.532 28.016L267.42 28.136C269.088 28.364 269.664 28.892 269.664 30.116C269.664 31.376 268.776 32.132 266.82 32.132C264.9 32.132 263.856 31.484 263.856 29.852H265.2C265.2 30.728 265.716 31.088 266.82 31.088C267.828 31.088 268.284 30.824 268.284 30.188C268.284 29.624 268.02 29.42 267.072 29.288L266.172 29.168C264.684 28.964 264 28.388 264 27.284C264 26.06 264.96 25.316 266.76 25.316C268.596 25.316 269.484 25.976 269.496 27.404H268.188C268.188 26.66 267.744 26.36 266.76 26.36ZM274.024 32.132C271.84 32.132 270.772 30.944 270.772 28.712C270.772 26.504 271.864 25.316 274.024 25.316C276.172 25.316 277.084 26.528 277.084 28.496C277.084 28.688 277.06 28.844 277.048 29.012H272.152C272.212 30.416 272.764 31.016 274.072 31.016C275.116 31.016 275.68 30.644 275.716 29.84H277.048C276.94 31.328 275.92 32.132 274.024 32.132ZM274.024 26.384C272.872 26.384 272.32 26.888 272.176 28.052H275.752C275.692 27.008 275.272 26.384 274.024 26.384ZM281.127 26.36C280.131 26.36 279.735 26.636 279.735 27.164C279.735 27.692 279.987 27.884 280.899 28.016L281.787 28.136C283.455 28.364 284.031 28.892 284.031 30.116C284.031 31.376 283.143 32.132 281.187 32.132C279.267 32.132 278.223 31.484 278.223 29.852H279.567C279.567 30.728 280.083 31.088 281.187 31.088C282.195 31.088 282.651 30.824 282.651 30.188C282.651 29.624 282.387 29.42 281.439 29.288L280.539 29.168C279.051 28.964 278.367 28.388 278.367 27.284C278.367 26.06 279.327 25.316 281.127 25.316C282.963 25.316 283.851 25.976 283.863 27.404H282.555C282.555 26.66 282.111 26.36 281.127 26.36Z" fill="#024D8C"></path></svg>